Coordinates
version=1
nRows=7
nColumns=33
inDegrees=yes

Units are S.I. units (second, meters, Newtons, ...)
Angles are in degrees.

endheader
time	ground_thorax_rot_x	ground_thorax_rot_y	ground_thorax_rot_z	ground_thorax_tx	ground_thorax_ty	ground_thorax_tz	clav_prot_r	clav_elev_r	scapula_abduction_r	scapula_elevation_r	scapula_upward_rot_r	scapula_winging_r	shoulder_elv_r	plane_of_elev_r	axial_rot_r	elbow_flexion_r	pro_sup_r	wrist_flex_r	wrist_dev_r	clav_prot_l	clav_elev_l	scapula_abduction_l	scapula_elevation_l	scapula_upward_rot_l	scapula_winging_l	shoulder_elv_l	plane_of_elev_l	axial_rot_l	elbow_flexion_l	pro_sup_l	wrist_flex_l	wrist_dev_l
      3.15000000	     37.12500310	     12.00062707	     18.43354167	   -242.15958433	    827.06994760	      5.13271760	     13.43411628	     37.08736450	     34.98035052	     45.00000000	    -45.00000000	   3152.18194370	   -108.13682021	    149.00611270	   -121.08273214	   1465.47368280	    154.80613209	     12.80703537	      5.44807889	     10.83262531	    -45.00000000	    -37.14392401	     45.00000000	    -45.00000000	  -2057.75721877	    437.70798039	     16.72332174	    -61.02895507	   1102.59682316	    171.45619838	     -1.12613050	    -10.76026441
      3.16000000	     37.34875958	     11.56747850	     18.14204788	   -240.87904166	    827.03713836	      5.13511128	     14.04456820	     37.27528880	     35.67379213	     45.00000000	    -45.00000000	   3151.86993579	   -108.42672001	    148.60587474	   -121.45589028	   1465.26997905	    155.02227944	     12.81372289	      5.37596393	     10.46697293	    -45.00000000	    -36.57468464	     45.00000000	    -45.00000000	  -2058.02878452	    437.75030716	     16.80789671	    -60.98533800	   1102.42107507	    172.53083120	     -1.06253543	    -10.69589664
      3.17000000	     37.11768823	     12.32647045	     18.45091885	   -239.42605456	    827.03104394	      5.15615644	     12.96931741	     36.89833961	     35.19853899	     45.00000000	    -45.00000000	   3152.41101878	   -108.01532439	    149.14483915	   -122.18444539	   1465.47555161	    155.29064856	     12.62505612	      5.56724264	     11.20626216	    -45.00000000	    -37.30132028	     45.00000000	    -45.00000000	  -2057.75031309	    437.67638623	     16.93020385	    -61.05648462	   1102.57367509	    173.30405430	     -1.06404112	    -10.56271474
      3.18000000	     37.40135684	     11.86323094	     18.05637167	   -237.78645105	    827.05184623	      5.19416457	     13.98252724	     37.20841884	     35.84335602	     45.00000000	    -45.00000000	   3151.91546987	   -108.27403516	    148.41512058	   -122.58355496	   1465.31000699	    155.57458145	     12.63067352	      5.41990441	     10.67316046	    -45.00000000	    -36.72729792	     45.00000000	    -45.00000000	  -2058.16181275	    437.78807833	     16.96239660	    -60.88477289	   1102.49703324	    174.46995147	     -0.95865860	    -10.47206826
      3.19000000	     37.43161562	     12.05494677	     18.04917528	   -235.96284150	    827.09798458	      5.24723750	     13.86207766	     37.14829314	     35.90061736	     45.00000000	    -45.00000000	   3151.92963316	   -108.21556721	    148.25352580	   -123.16098723	   1465.27541371	    156.01557788	     12.53739625	      5.45882250	     10.86458762	    -45.00000000	    -36.77178628	     45.00000000	    -45.00000000	  -2058.22653075	    437.75346359	     17.07402230	    -60.85511677	   1102.51932072	    175.60448826	     -0.89736128	    -10.35224018
      3.20000000	     37.44649905	     12.20100635	     18.01691092	   -233.95917576	    827.16422348	      5.31368659	     14.02886641	     37.22293036	     36.03059244	     45.00000000	    -45.00000000	   3151.93885184	   -108.15472858	    148.09893228	   -123.66237006	   1465.32318973	    156.62226180	     12.44020195	      5.43294624	     10.78132986	    -45.00000000	    -36.86752346	     45.00000000	    -45.00000000	  -2058.36208436	    437.76754248	     17.08597416	    -60.69754259	   1102.58830536	    176.81059494	     -0.82840773	    -10.21891345
      3.21000000	     37.48295025	     12.39704031	     18.00686169	   -231.77235925	    827.24346525	      5.39182189	     14.09672235	     37.26589485	     36.20073210	     45.00000000	    -45.00000000	   3151.95859570	   -108.04457330	    148.02509879	   -124.13701273	   1465.33578698	    157.41889345	     12.34246075	      5.41238214	     10.76815020	    -45.00000000	    -37.00666246	     45.00000000	    -45.00000000	  -2058.48822605	    437.77565305	     17.13420258	    -60.53210347	   1102.67316822	    178.04452220	     -0.76542940	    -10.07766349
